<svg width="48" height="48" viewBox="0 0 48 48" fill="none" xmlns="http://www.w3.org/2000/svg">
<path d="M35.9764 45.3334H10.594C9.16139 45.3334 8 44.1782 8 42.7532V5.24698C8 3.82196 9.16139 2.66675 10.594 2.66675H25.5564C35.5175 2.66675 40 9.72625 40 16.7858C40 22.7925 36.8249 28.0562 29.9144 29.7901L38.0924 41.2606C39.3106 42.9692 38.0823 45.3334 35.9764 45.3334Z" fill="url(#paint0_linear_2646_584)"/>
<path opacity="0.64" d="M10.6667 2.66675H16V45.3334H10.6667C9.19391 45.3334 8 44.1782 8 42.7532V5.24698C8 3.82196 9.19391 2.66675 10.6667 2.66675Z" fill="url(#paint1_linear_2646_584)"/>
<defs>
<linearGradient id="paint0_linear_2646_584" x1="24.4981" y1="2.66675" x2="24.4981" y2="45.3334" gradientUnits="userSpaceOnUse">
<stop stop-color="#2ED4FF"/>
<stop offset="1" stop-color="#0088FF"/>
</linearGradient>
<linearGradient id="paint1_linear_2646_584" x1="15.2686" y1="2.66675" x2="15.2686" y2="45.3334" gradientUnits="userSpaceOnUse">
<stop stop-color="#3525D3"/>
<stop offset="1" stop-color="#3525D3" stop-opacity="0.24"/>
</linearGradient>
</defs>
</svg>
