<svg width="20" height="20" viewBox="0 0 20 20" fill="none" xmlns="http://www.w3.org/2000/svg">
<g clip-path="url(#clip0_2622_852)">
<path d="M10 18.3333C14.6025 18.3333 18.3333 14.6025 18.3333 10C18.3333 5.3975 14.6025 1.66667 10 1.66667C5.3975 1.66667 1.66667 5.3975 1.66667 10C1.66667 14.6025 5.3975 18.3333 10 18.3333ZM10 20C4.4775 20 0 15.5225 0 10C0 4.4775 4.4775 0 10 0C15.5225 0 20 4.4775 20 10C20 15.5225 15.5225 20 10 20Z" fill="#6B7280"/>
<path d="M8.33325 14.1667L13.3333 10L8.33325 5.83334V14.1667Z" fill="#6B7280"/>
</g>
<defs>
<clipPath id="clip0_2622_852">
<rect width="20" height="20" fill="white"/>
</clipPath>
</defs>
</svg>
