<svg width="42" height="44" viewBox="0 0 42 44" fill="none" xmlns="http://www.w3.org/2000/svg">
<path d="M32.0448 14.6611V9.57019C32.7186 9.25548 33.289 8.75578 33.6897 8.12931C34.0905 7.50283 34.305 6.77538 34.3083 6.03168V5.91267C34.3055 4.87335 33.8914 3.8774 33.1566 3.14249C32.4219 2.40758 31.4261 1.99348 30.3869 1.99069H30.2679C29.2288 1.99348 28.233 2.40758 27.4982 3.14249C26.7634 3.8774 26.3494 4.87335 26.3466 5.91267V6.03168C26.3499 6.77538 26.5644 7.50283 26.9651 8.12931C27.3659 8.75578 27.9363 9.25548 28.61 9.57019V14.6717C26.673 14.9679 24.8487 15.7708 23.3216 16.999L9.3233 6.09515C9.58977 5.09735 9.5023 4.03804 9.07578 3.09748C8.64926 2.15692 7.91005 1.39325 6.98395 0.936433C6.05785 0.479614 5.00209 0.357877 3.99636 0.59194C2.99062 0.826003 2.09706 1.4014 1.46774 2.22021C0.838415 3.03902 0.512228 4.05064 0.544689 5.08291C0.57715 6.11517 0.966252 7.10429 1.64578 7.88193C2.3253 8.65957 3.25325 9.17767 4.27171 9.34806C5.29016 9.51845 6.33618 9.3306 7.23174 8.81647L20.9948 19.5325C19.7551 21.403 19.1084 23.604 19.139 25.848C19.1697 28.0919 19.8763 30.2744 21.1666 32.1104L16.9782 36.2995C16.642 36.1923 16.2919 36.1353 15.9391 36.1302C15.22 36.1302 14.517 36.3435 13.9191 36.743C13.3212 37.1426 12.8552 37.7105 12.5801 38.375C12.3049 39.0394 12.2329 39.7706 12.3732 40.476C12.5135 41.1814 12.8597 41.8293 13.3682 42.3379C13.8767 42.8464 14.5245 43.1927 15.2298 43.3331C15.935 43.4734 16.6661 43.4013 17.3304 43.1261C17.9948 42.8509 18.5626 42.3848 18.9621 41.7868C19.3616 41.1888 19.5748 40.4858 19.5748 39.7666C19.5699 39.4137 19.5128 39.0634 19.4056 38.7272L23.549 34.5831C24.9016 35.6164 26.4723 36.3269 28.1413 36.6605C29.8103 36.994 31.5334 36.9418 33.1791 36.5077C34.8248 36.0737 36.3496 35.2692 37.6371 34.1559C38.9246 33.0426 39.9407 31.6498 40.6079 30.0838C41.2751 28.5177 41.5757 26.82 41.4869 25.12C41.398 23.4201 40.9219 21.763 40.0951 20.2751C39.2682 18.7872 38.1124 17.508 36.7158 16.535C35.3193 15.5621 33.7189 14.9211 32.0369 14.6611H32.0448ZM30.3208 31.4333C29.1875 31.4307 28.0803 31.0922 27.1393 30.4605C26.1983 29.8287 25.4656 28.9322 25.0338 27.8842C24.602 26.8361 24.4905 25.6836 24.7134 24.5722C24.9363 23.4608 25.4836 22.4404 26.2861 21.64C27.0886 20.8395 28.1103 20.295 29.2221 20.0751C30.334 19.8553 31.486 19.97 32.5327 20.4047C33.5794 20.8395 34.4737 21.5748 35.1027 22.5177C35.7317 23.4606 36.0672 24.5689 36.0667 25.7024C36.0667 27.2231 35.4627 28.6814 34.3876 29.7567C33.3125 30.8319 31.8544 31.436 30.334 31.436" fill="#FF7A59"/>
</svg>
