<svg width="35" height="40" viewBox="0 0 35 40" fill="none" xmlns="http://www.w3.org/2000/svg">
<g clip-path="url(#clip0_4254_31)">
<path d="M24.8157 5.19569V34.3624C24.8157 37.6259 27.0673 39.4444 29.4558 39.4444C31.6654 39.4444 34.096 37.8977 34.096 34.3624V5.41665C34.096 2.42486 31.8864 0.555542 29.4558 0.555542C27.0253 0.555542 24.8157 2.61709 24.8157 5.19569Z" fill="#F9AB00"/>
<path d="M12.663 20V34.3624C12.663 37.626 14.9145 39.4445 17.3031 39.4445C19.5127 39.4445 21.9433 37.8977 21.9433 34.3624V20.221C21.9433 17.2292 19.7337 15.3599 17.3031 15.3599C14.8726 15.3599 12.663 17.4214 12.663 20Z" fill="#E37400"/>
<path d="M5.15028 39.4444C7.71297 39.4444 9.79043 37.3669 9.79043 34.8042C9.79043 32.2415 7.71297 30.1641 5.15028 30.1641C2.5876 30.1641 0.510132 32.2415 0.510132 34.8042C0.510132 37.3669 2.5876 39.4444 5.15028 39.4444Z" fill="#E37400"/>
</g>
<defs>
<clipPath id="clip0_4254_31">
<rect width="33.9394" height="40" fill="white" transform="translate(0.333374)"/>
</clipPath>
</defs>
</svg>
